<svg width="55" height="54" viewBox="0 0 55 54" fill="none" xmlns="http://www.w3.org/2000/svg">
<g id="Vector">
<path d="M3.20577 25.6763L0.870605 26.3429L3.27813 27.06C14.6466 30.4464 23.464 39.2759 26.6629 50.4771L27.5527 53.5927L28.4425 50.4771C31.6414 39.2759 40.4588 30.4464 51.8273 27.06L54.2348 26.3429L51.8996 25.6763C40.4867 22.4184 31.5626 13.6841 28.2338 2.51399L27.5527 0.228516L26.8716 2.51399C23.5429 13.6841 14.6187 22.4184 3.20577 25.6763Z" fill="url(#paint0_angular_2_7446)"/>
<path d="M3.20577 25.6763L0.870605 26.3429L3.27813 27.06C14.6466 30.4464 23.464 39.2759 26.6629 50.4771L27.5527 53.5927L28.4425 50.4771C31.6414 39.2759 40.4588 30.4464 51.8273 27.06L54.2348 26.3429L51.8996 25.6763C40.4867 22.4184 31.5626 13.6841 28.2338 2.51399L27.5527 0.228516L26.8716 2.51399C23.5429 13.6841 14.6187 22.4184 3.20577 25.6763Z" fill="black"/>
</g>
<defs>
<radialGradient id="paint0_angular_2_7446" cx="0" cy="0" r="1" gradientUnits="userSpaceOnUse" gradientTransform="translate(27.5527 26.9106) rotate(90) scale(26.6821)">
<stop stop-color="#9CC4FF"/>
<stop offset="1" stop-color="#FF6A55" stop-opacity="0"/>
</radialGradient>
</defs>
</svg>
